<?xml version="1.0" standalone="no"?>
<!DOCTYPE svg PUBLIC "-//W3C//DTD SVG 20010904//EN"
 "http://www.w3.org/TR/2001/REC-SVG-20010904/DTD/svg10.dtd">
<svg version="1.0" xmlns="http://www.w3.org/2000/svg"
 width="600.000000pt" height="300.000000pt" viewBox="0 0 600.000000 300.000000"
 preserveAspectRatio="xMidYMid meet">

<g transform="translate(0.000000,300.000000) scale(0.100000,-0.100000)"
fill="gray" stroke="none">
<path d="M1625 2851 c17 -7 14 -11 -25 -28 -25 -11 -119 -80 -210 -154 -194
-158 -494 -400 -635 -513 -55 -44 -120 -97 -144 -118 -35 -30 -52 -38 -83 -38
-22 0 -37 4 -34 9 3 4 128 107 277 227 149 121 370 298 490 395 206 167 269
207 322 210 17 1 18 2 4 6 -28 7 -111 -25 -153 -60 -21 -18 -133 -109 -249
-202 -115 -93 -244 -197 -285 -230 -411 -334 -437 -354 -483 -357 l-45 -3 161
-130 c88 -71 208 -168 266 -215 58 -47 210 -169 336 -271 127 -103 246 -194
264 -203 47 -25 34 -29 -30 -10 -68 20 -66 19 -435 319 -451 367 -624 505
-643 513 -9 4 -37 5 -62 2 l-46 -5 235 -190 c129 -104 288 -233 352 -285 64
-52 181 -147 259 -210 79 -63 158 -123 178 -133 52 -27 34 -31 -33 -7 -72 25
-43 3 -451 333 -186 150 -395 319 -465 376 -70 56 -130 107 -133 112 -4 5 -33
9 -66 9 -38 0 -58 -4 -54 -10 4 -6 135 -115 293 -242 158 -127 379 -306 491
-397 113 -90 223 -174 245 -185 42 -21 105 -24 548 -26 l88 0 -133 -107 c-135
-111 -220 -162 -266 -164 -14 0 -35 -4 -46 -8 -11 -5 141 -9 339 -9 416 0 435
2 532 76 92 70 884 710 919 743 24 23 41 29 82 30 29 1 50 6 47 10 -3 5 -73
64 -157 131 -84 67 -305 246 -491 396 -187 151 -355 284 -373 294 -18 11 -33
21 -33 23 0 7 123 -34 140 -47 17 -12 216 -172 440 -354 47 -38 192 -156 323
-262 l237 -193 55 2 c30 1 52 5 50 9 -3 4 -73 63 -157 131 -84 68 -236 190
-338 273 -376 305 -492 397 -523 417 l-32 21 30 -5 c61 -11 106 -39 241 -149
77 -61 198 -159 269 -217 72 -58 200 -162 285 -230 85 -68 190 -153 232 -188
75 -62 77 -63 131 -61 31 1 54 5 51 9 -2 4 -68 59 -147 122 -78 63 -302 244
-497 402 -195 158 -375 297 -400 309 -43 20 -61 21 -332 21 -159 0 -288 2
-288 5 0 3 66 57 145 120 142 112 207 149 268 150 15 0 27 4 27 9 0 4 -113 8
-252 8 -138 0 -243 -4 -232 -7 15 -6 10 -11 -27 -27 -25 -11 -61 -34 -80 -50
-18 -16 -113 -93 -209 -170 -96 -77 -251 -202 -345 -278 -409 -331 -398 -323
-438 -323 -20 0 -37 2 -37 4 0 3 159 133 463 377 61 49 202 162 314 253 197
160 261 202 313 205 36 2 -67 17 -120 17 -32 1 -39 -2 -25 -7z m395 -6 c0 -2
-19 -13 -42 -23 -24 -11 -119 -82 -213 -157 -156 -127 -325 -263 -655 -530
-69 -55 -136 -109 -150 -118 -24 -17 -91 -24 -89 -9 0 4 112 96 247 204 136
108 359 287 495 397 149 120 265 206 290 215 52 19 117 31 117 21z m190 -1 c0
-3 -14 -10 -32 -16 -18 -6 -111 -75 -207 -152 -213 -171 -552 -444 -717 -578
-104 -84 -126 -98 -158 -98 -20 0 -36 3 -35 8 0 4 112 96 247 204 136 108 358
286 494 396 136 109 259 204 275 210 61 24 133 39 133 26z m-510 -9 c0 -3 -10
-9 -22 -14 -13 -5 -61 -40 -108 -78 -47 -38 -154 -125 -239 -193 -638 -516
-681 -550 -714 -550 l-32 0 44 38 c25 20 142 116 262 212 119 96 319 257 443
358 209 169 303 232 349 232 9 0 17 -2 17 -5z m154 -21 c-21 -15 -93 -70 -159
-124 -66 -53 -183 -148 -260 -210 -77 -62 -240 -193 -362 -291 -121 -98 -224
-183 -228 -189 -4 -6 13 -10 49 -10 54 0 56 1 169 93 268 216 572 461 731 590
118 94 186 142 219 153 50 17 90 14 47 -4 -14 -5 -196 -148 -405 -317 -209
-170 -435 -351 -502 -404 -67 -53 -122 -99 -122 -103 -1 -5 23 -8 53 -8 l54 0
163 132 c519 418 507 410 529 398 18 -10 170 -131 493 -393 56 -46 174 -141
262 -212 268 -216 256 -205 209 -199 -30 3 7 31 -607 -466 -213 -173 -411
-328 -440 -345 -36 -20 -67 -30 -102 -31 -27 0 -72 -5 -99 -9 -30 -5 -47 -4
-43 2 6 10 -80 10 -153 -1 l-45 -6 42 19 c40 19 160 114 766 605 257 207 271
217 307 214 l39 -3 -132 -107 c-440 -357 -836 -674 -862 -689 -16 -11 -25 -19
-20 -19 20 0 93 55 312 232 120 97 319 259 443 359 124 100 240 193 257 208
18 14 33 28 33 31 0 10 -107 5 -121 -6 -37 -29 -301 -242 -439 -354 -220 -179
-213 -174 -241 -159 -25 13 -74 52 -657 522 -320 258 -341 277 -309 277 32 0
90 44 534 403 505 407 555 444 617 446 13 1 6 -7 -20 -25z m239 -281 c21 -9
101 -66 177 -127 643 -519 850 -687 850 -691 0 -9 -81 5 -98 16 -10 8 -108 86
-216 174 -184 149 -255 206 -617 499 -74 60 -156 120 -184 133 l-50 24 50 -6
c27 -4 67 -14 88 -22z m197 -4 c25 -11 65 -37 90 -58 44 -37 162 -132 440
-356 75 -60 206 -166 291 -236 85 -69 165 -133 179 -142 13 -9 22 -17 20 -18
-39 -6 -70 -3 -90 9 -14 9 -187 147 -385 307 -552 447 -598 483 -646 505 l-44
20 50 -6 c28 -3 70 -15 95 -25z m178 4 c26 -9 117 -75 230 -166 103 -84 324
-262 490 -396 166 -134 302 -247 302 -250 0 -18 -74 -3 -103 21 -146 118 -409
330 -573 463 -110 87 -239 193 -287 233 -49 41 -109 83 -133 93 -24 11 -44 22
-44 25 0 8 71 -6 118 -23z m-560 -3 c37 -17 152 -107 567 -444 61 -49 173
-140 250 -202 77 -62 156 -126 175 -143 l35 -30 -42 2 c-47 2 10 -41 -757 580
-148 120 -279 224 -292 229 -13 6 -24 15 -24 20 0 14 43 8 88 -12z m74 5 c32
-12 181 -125 534 -410 269 -218 491 -400 492 -405 2 -6 -8 -10 -21 -10 -28 0
-34 5 -859 672 -86 70 -171 136 -190 148 -39 24 -19 26 44 5z m-1599 -772
c155 -126 373 -302 484 -393 112 -91 227 -178 256 -193 l52 -28 -48 5 c-27 3
-66 14 -87 23 -21 10 -196 144 -387 299 -191 155 -411 332 -488 394 -77 62
-142 115 -144 116 -2 2 15 4 38 4 40 0 56 -11 324 -227z m200 -9 c160 -129
382 -308 492 -397 110 -89 220 -172 245 -185 l45 -23 -48 5 c-27 3 -68 14 -90
25 -23 11 -204 151 -402 311 -198 161 -403 326 -455 368 -52 42 -110 88 -128
104 l-33 28 41 0 c38 0 59 -15 333 -236z m50 113 c176 -143 395 -319 657 -531
102 -82 203 -158 225 -168 l40 -19 -48 5 c-95 11 -63 -12 -811 594 -93 75
-198 161 -233 190 l-66 52 42 0 c39 0 54 -9 194 -123z m-48 113 c3 -6 50 -45
103 -88 279 -224 536 -431 695 -559 97 -79 188 -149 202 -155 38 -17 30 -28
-12 -16 -70 19 -108 46 -463 334 -195 158 -413 334 -483 391 l-128 103 40 0
c22 0 43 -5 46 -10z m393 -237 c168 -137 390 -316 492 -398 103 -83 197 -157
210 -166 19 -12 20 -17 9 -21 -42 -16 -128 45 -601 426 -266 214 -487 393
-492 398 -6 4 9 8 32 8 41 0 57 -11 350 -247z m1856 -52 c-5 -5 -81 -66 -169
-137 -88 -70 -194 -155 -235 -189 -323 -263 -553 -447 -581 -464 -19 -12 -29
-21 -24 -21 22 0 101 61 447 341 194 158 407 330 472 383 98 79 125 96 153 96
l34 0 -58 -48 c-32 -26 -161 -131 -288 -233 -126 -102 -318 -256 -425 -344
-203 -164 -272 -206 -337 -203 -21 2 -60 -1 -88 -5 l-50 -7 45 21 c25 11 77
46 115 78 39 31 140 113 225 182 85 69 227 184 315 255 88 71 208 169 267 216
86 70 114 87 145 90 43 3 51 1 37 -11z m190 0 c-5 -4 -187 -151 -404 -327
-217 -175 -433 -349 -480 -388 -91 -74 -139 -100 -207 -111 -52 -8 -55 0 -7
20 19 8 90 59 157 113 67 54 235 190 372 301 138 111 304 246 371 301 100 82
127 99 160 102 44 3 52 1 38 -11z"/>
<path d="M2523 1675 c-28 -22 -249 -200 -490 -394 -241 -195 -456 -365 -478
-378 -40 -23 -33 -33 8 -11 12 6 101 75 197 153 96 78 247 199 335 270 88 71
229 185 314 254 129 105 161 126 198 131 24 4 42 3 41 -1 -2 -4 -80 -70 -174
-146 -95 -76 -310 -249 -478 -386 -168 -136 -321 -256 -339 -267 -17 -11 -27
-20 -21 -20 17 0 82 46 191 135 124 101 314 256 513 416 275 221 338 274 335
277 -1 2 -25 4 -51 5 -43 2 -55 -3 -101 -38z"/>
<path d="M3584 2319 c-65 -19 -102 -99 -88 -193 9 -57 24 -77 96 -132 85 -63
98 -80 98 -123 0 -45 -12 -64 -36 -59 -16 3 -20 14 -22 61 l-3 57 -66 0 -65 0
4 -69 c4 -79 19 -103 83 -132 54 -25 111 -24 165 4 61 30 71 54 68 159 -4 104
-15 123 -109 186 -74 50 -81 60 -77 110 2 29 7 37 23 37 16 0 21 -8 23 -42 l3
-43 66 0 65 0 -4 60 c-3 44 -10 66 -26 83 -39 41 -126 57 -198 36z"/>
<path d="M4823 2319 c-69 -20 -106 -112 -84 -208 11 -50 32 -75 118 -138 49
-36 64 -53 69 -79 10 -52 -2 -86 -29 -82 -19 3 -22 10 -25 61 l-3 57 -66 0
-65 0 4 -70 c3 -60 7 -73 33 -100 51 -53 151 -66 220 -27 51 29 65 57 65 137
0 117 -13 139 -131 220 -60 41 -75 72 -58 118 15 40 43 24 47 -26 l3 -42 65 0
64 0 0 40 c0 22 -7 56 -15 76 -25 60 -122 89 -212 63z"/>
<path d="M3875 2307 c-3 -7 -4 -140 -3 -297 l3 -285 123 -3 122 -3 0 61 0 60
-55 0 -55 0 0 64 0 65 48 3 47 3 3 52 3 52 -48 3 -48 3 0 55 0 55 48 3 47 3 0
60 0 59 -115 0 c-84 0 -117 -3 -120 -13z"/>
<path d="M4140 2309 c0 -24 61 -564 65 -576 3 -9 30 -13 88 -13 98 0 87 -16
107 160 12 107 17 136 24 129 2 -2 12 -58 21 -124 25 -182 13 -165 111 -165
59 0 86 4 89 13 5 13 65 544 65 572 0 13 -11 15 -67 13 l-68 -3 -6 -45 c-4
-25 -13 -112 -20 -194 -7 -85 -16 -141 -20 -130 -4 10 -12 95 -18 188 -6 93
-14 173 -17 178 -4 5 -36 8 -72 6 -79 -4 -76 3 -93 -202 -15 -188 -25 -208
-34 -71 -4 61 -10 146 -14 190 l-6 80 -67 3 c-48 2 -68 -1 -68 -9z"/>
<path d="M3075 1626 c-84 -36 -102 -105 -92 -353 4 -115 9 -149 24 -175 51
-89 226 -95 287 -11 14 19 22 50 26 105 l5 78 -72 0 -72 0 -3 -72 c-3 -65 -5
-73 -23 -73 -18 0 -20 8 -25 95 -3 52 -4 146 -2 208 3 110 4 113 25 110 20 -3
22 -10 27 -83 l5 -80 68 -3 67 -3 0 78 c0 96 -19 139 -75 170 -46 26 -122 30
-170 9z"/>
<path d="M3416 1593 c-3 -21 -17 -134 -31 -251 -14 -118 -28 -234 -32 -258
l-6 -45 74 3 74 3 5 50 c5 45 7 50 30 50 23 0 25 -4 28 -52 l3 -53 75 0 c40 0
74 1 74 3 0 1 -18 130 -40 286 -22 157 -40 289 -40 293 0 4 -47 8 -104 8
l-104 0 -6 -37z m129 -240 l7 -103 -27 0 c-26 0 -27 2 -22 38 3 20 9 72 13
116 9 99 20 80 29 -51z"/>
<path d="M3740 1335 l0 -295 130 0 c191 0 198 6 202 160 2 93 -6 116 -44 140
l-30 18 23 13 c35 18 39 27 39 106 0 62 -3 75 -26 102 -33 39 -77 51 -196 51
l-98 0 0 -295z m188 134 c2 -40 -1 -59 -12 -68 -26 -21 -36 -2 -36 65 0 62 1
65 23 62 19 -3 22 -10 25 -59z m-10 -168 c9 -5 12 -29 10 -82 -3 -68 -5 -74
-25 -77 -22 -3 -23 -1 -23 76 0 91 6 104 38 83z"/>
<path d="M4130 1335 l0 -295 70 0 70 0 0 295 0 295 -70 0 -70 0 0 -295z"/>
<path d="M4340 1335 l0 -295 55 0 55 0 0 126 c0 69 4 123 8 120 5 -3 24 -59
42 -126 l33 -120 64 0 63 0 0 295 0 295 -60 0 -60 0 0 -127 c0 -69 -3 -123 -7
-119 -4 3 -23 59 -43 124 l-35 117 -58 3 -57 3 0 -296z"/>
<path d="M4720 1336 l0 -298 141 4 c140 3 141 3 165 31 24 28 24 30 24 249 0
299 1 297 -207 306 l-123 5 0 -297z m185 -1 c0 -189 0 -190 -22 -193 l-23 -3
0 196 0 196 23 -3 c22 -3 22 -4 22 -193z"/>
<path d="M4425 911 c-74 -34 -80 -57 -80 -288 0 -188 1 -203 21 -229 40 -54
70 -69 137 -69 82 1 123 23 149 81 18 41 19 63 16 239 -3 177 -5 196 -24 222
-45 61 -140 80 -219 44z m103 -290 c-3 -188 -4 -196 -23 -196 -19 0 -20 8 -23
194 -3 200 3 236 35 210 11 -10 13 -50 11 -208z"/>
<path d="M4815 917 c-16 -8 -41 -27 -55 -42 -25 -26 -25 -28 -28 -238 -2 -197
-1 -214 17 -244 32 -51 65 -67 140 -67 123 -1 176 58 169 187 l-3 52 -65 0
-65 0 -5 -70 c-5 -63 -7 -70 -27 -73 -21 -3 -23 1 -24 50 -3 141 -3 180 -1
266 2 91 2 92 27 92 23 0 24 -2 27 -81 l3 -82 53 1 c28 0 59 1 67 1 12 1 15
16 15 71 0 127 -43 179 -153 186 -40 3 -73 -1 -92 -9z"/>
<path d="M3110 625 l0 -295 60 0 60 0 0 182 c0 100 2 179 5 176 3 -2 14 -74
25 -159 28 -216 23 -201 73 -197 l42 3 21 177 c11 98 23 181 27 184 4 4 7 -77
7 -179 l0 -187 60 0 60 0 0 295 0 296 -92 -3 -93 -3 -16 -130 c-9 -71 -19
-123 -22 -115 -3 8 -11 56 -17 105 -6 50 -13 102 -16 118 l-6 27 -89 0 -89 0
0 -295z"/>
<path d="M3650 912 c0 -4 -16 -131 -35 -282 -19 -151 -35 -281 -35 -288 0 -10
18 -12 73 -10 l72 3 3 53 c3 50 4 52 32 52 28 0 29 -2 32 -52 l3 -53 70 0 c64
0 70 2 68 20 0 11 -18 143 -39 293 l-37 272 -104 0 c-57 0 -103 -3 -103 -8z
m120 -201 c0 -26 3 -76 6 -110 l7 -61 -28 0 c-27 0 -27 1 -22 48 4 26 9 75 13
110 8 73 24 83 24 13z"/>
<path d="M3970 626 l0 -297 68 3 67 3 3 133 c2 118 5 133 19 130 24 -5 34 -51
32 -163 l-2 -100 64 0 64 0 0 107 c1 130 -7 163 -43 182 l-27 14 27 11 c32 12
42 38 41 116 -2 126 -26 146 -193 153 l-120 5 0 -297z m180 168 c6 -15 8 -38
6 -53 -2 -14 -5 -32 -5 -38 -1 -7 -10 -13 -21 -13 -18 0 -20 7 -20 65 0 52 3
65 15 65 9 0 20 -12 25 -26z"/>
<path d="M5180 590 c-36 -36 -17 -112 35 -140 31 -17 51 -58 36 -73 -13 -13
-22 -5 -24 22 -1 20 -8 22 -54 21 -4 0 -6 -15 -5 -33 6 -64 81 -89 127 -42 44
43 29 106 -34 151 -27 20 -39 35 -37 48 4 29 26 32 26 4 0 -21 5 -25 30 -25
26 0 30 4 30 27 0 15 -8 34 -18 43 -26 24 -87 22 -112 -3z"/>
<path d="M5427 603 c-3 -5 -10 -55 -16 -113 -6 -58 -14 -117 -16 -132 -4 -26
-2 -28 30 -28 31 0 35 3 35 25 0 16 6 25 15 25 9 0 15 -9 15 -25 0 -22 4 -25
35 -25 19 0 35 4 35 10 0 14 -30 221 -35 248 -5 19 -12 22 -50 22 -24 0 -46
-3 -48 -7z m54 -176 c-15 -15 -21 10 -14 59 l7 49 8 -50 c4 -27 3 -54 -1 -58z"/>
<path d="M5656 588 c-9 -12 -16 -33 -16 -46 0 -26 26 -82 38 -82 18 0 52 -43
52 -65 0 -25 -19 -36 -21 -12 -1 6 -2 19 -3 26 0 9 -12 15 -31 15 -28 1 -30
-2 -28 -32 1 -41 16 -59 54 -67 101 -22 137 102 48 163 -39 27 -55 54 -44 72
11 18 25 11 25 -14 0 -19 5 -23 30 -22 25 1 30 5 30 27 0 37 -29 59 -78 59
-31 0 -45 -5 -56 -22z"/>
<path d="M5340 355 c0 -18 5 -25 20 -25 15 0 20 7 20 25 0 18 -5 25 -20 25
-15 0 -20 -7 -20 -25z"/>
<path d="M5580 355 c0 -18 5 -25 20 -25 11 0 20 4 20 9 0 5 3 16 6 25 5 12 0
16 -20 16 -21 0 -26 -5 -26 -25z"/>
<path d="M5810 355 c0 -20 5 -25 25 -25 20 0 25 5 25 25 0 20 -5 25 -25 25
-20 0 -25 -5 -25 -25z"/>
</g>
</svg>
